<?xml version="1.0" encoding="UTF-8" standalone="no"?>
<!DOCTYPE svg PUBLIC "-//W3C//DTD SVG 1.1//EN" "http://www.w3.org/Graphics/SVG/1.1/DTD/svg11.dtd">
<svg width="100%" height="100%" viewBox="0 0 40 40" version="1.1" xmlns="http://www.w3.org/2000/svg"
     xml:space="preserve" xmlns:serif="http://www.serif.com/"
     style="fill-rule:evenodd;clip-rule:evenodd;stroke-linecap:round;stroke-linejoin:round;stroke-miterlimit:1.5;">
    <g id="Vector-Leaf" serif:id="Vector Leaf" transform="matrix(1,0,0,1,0,-1)">
        <path d="M21,3C17.927,6.134 15.019,10.151 12,20C9.139,18.887 6.186,18.294 3,19C4.26,24.006 6,28 10,31C8.374,32.075 7,33 7,34C7,37 9,39 14,39C15,39 15.957,38.023 17,37C18.321,37.251 19.652,37.308 21,37C21.533,38.271 22.648,38.788 24,39C26.336,39.526 28.668,39.314 31,39C30.24,36.497 29.888,34.475 30,33C33.456,29.565 35.2,24.29 36,18C32,21 29,22 25,22C25.547,5.041 22.163,3.31 21,3Z" style="fill:rgb(99,148,54);stroke:rgb(99,148,54);stroke-width:1px;"/>
    </g>
    <g id="Vector-Bulb" serif:id="Vector Bulb" transform="matrix(1.11632,0,0,1.11632,-2.51213,-4.09372)">
        <g transform="matrix(0.0713958,0,0,0.0713958,9.55317,8.78075)">
            <path d="M195.528,229.334L195.516,229.317C200.688,214.286 201.208,197.493 195.845,181.143C182.962,141.868 140.267,120.113 100.896,132.7C61.628,145.255 39.562,187.046 51.534,226.654C56.31,242.455 65.8,255.529 77.986,264.839L77.986,264.859C77.986,264.859 78.057,264.905 78.166,264.978C79.764,266.19 81.408,267.337 83.094,268.419C93.909,276.259 119.001,296.154 129.169,318.666C130.876,322.445 135.098,324.388 139.066,323.188L158.023,317.459L176.98,311.729C180.949,310.53 183.388,306.574 182.716,302.482C178.713,278.107 188.584,247.644 193.247,235.126C194.051,233.292 194.785,231.427 195.444,229.532C195.495,229.411 195.528,229.334 195.528,229.334Z" style="fill:rgb(250,172,58);fill-rule:nonzero;"/>
        </g>
        <g transform="matrix(0.0654089,0,0,0.0664665,10.2953,9.7936)">
            <path d="M195.528,229.334L195.516,229.317C200.688,214.286 201.208,197.493 195.845,181.143C182.962,141.868 140.267,120.113 100.896,132.7C61.628,145.255 39.562,187.046 51.534,226.654C56.31,242.455 65.8,255.529 77.986,264.839L77.986,264.859C77.986,264.859 78.057,264.905 78.166,264.978C79.764,266.19 81.408,267.337 83.094,268.419C93.909,276.259 119.001,296.154 129.169,318.666C130.876,322.445 135.098,324.388 139.066,323.188L158.023,317.459L176.98,311.729C180.949,310.53 183.388,306.574 182.716,302.482C178.713,278.107 188.584,247.644 193.247,235.126C194.051,233.292 194.785,231.427 195.444,229.532C195.495,229.411 195.528,229.334 195.528,229.334Z" style="fill:rgb(243,255,76);fill-rule:nonzero;"/>
        </g>
        <g transform="matrix(0.0654404,-0.00368363,0.00289219,0.0513803,9.84969,17.141)">
            <path d="M148.989,351.375L184.747,340.527C184.747,340.527 185.48,352.942 170.378,357.523C155.276,362.104 148.989,351.375 148.989,351.375Z" style="fill:rgb(53,73,84);fill-rule:nonzero;"/>
        </g>
        <g transform="matrix(0.0163918,-0.00499177,0.00698245,0.0229287,8.80097,3.32996)">
            <path d="M319,1278.01C319,1265.31 304.58,1255 286.819,1255L106.181,1255C88.42,1255 74,1265.31 74,1278.01L74,1373.99C74,1386.69 88.42,1397 106.181,1397L286.819,1397C304.58,1397 319,1386.69 319,1373.99L319,1278.01Z" style="fill:rgb(28,47,61);"/>
        </g>
        <g transform="matrix(0.0713958,0,0,0.0713958,9.55317,8.78075)">
            <path d="M188.527,319.122L133.953,335.677C132.071,336.248 130.063,335.175 129.493,333.293C128.921,331.411 129.994,329.403 131.876,328.833L186.451,312.277C188.333,311.706 190.34,312.779 190.911,314.661C191.482,316.544 190.41,318.551 188.527,319.122Z" style="fill:rgb(101,125,139);fill-rule:nonzero;"/>
        </g>
        <g transform="matrix(0.0713958,0,0,0.0713958,9.6306,8.78852)">
            <path d="M192.024,330.649L137.45,347.204C135.567,347.775 133.561,346.702 132.989,344.82C132.418,342.938 133.491,340.931 135.374,340.36L189.948,323.805C191.83,323.233 193.837,324.307 194.408,326.188C194.979,328.071 193.906,330.078 192.024,330.649Z" style="fill:rgb(101,125,139);fill-rule:nonzero;"/>
        </g>
        <g transform="matrix(0.0713958,0,0,0.0713958,9.87049,9.66241)">
            <path d="M192.024,330.649L137.45,347.204C135.567,347.775 133.561,346.702 132.989,344.82C132.418,342.938 133.491,340.931 135.374,340.36L189.948,323.805C191.83,323.233 193.837,324.307 194.408,326.188C194.979,328.071 193.906,330.078 192.024,330.649Z" style="fill:rgb(101,125,139);fill-rule:nonzero;"/>
        </g>
    </g>
</svg>
